<svg width="39" height="68" viewBox="0 0 39 68" fill="none" xmlns="http://www.w3.org/2000/svg">
<path d="M1.49136 1.49678C0.536442 2.45546 0 3.75554 0 5.11111C0 6.46669 0.536442 7.76676 1.49136 8.72544L26.705 34.0309L1.49136 59.3363C0.563504 60.3005 0.0500897 61.5918 0.0616952 62.9322C0.0733007 64.2726 0.608997 65.5548 1.5534 66.5027C2.49781 67.4505 3.77536 67.9882 5.1109 67.9998C6.44645 68.0115 7.73312 67.4962 8.69379 66.5649L37.5086 37.6452C38.4636 36.6865 39 35.3864 39 34.0309C39 32.6753 38.4636 31.3752 37.5086 30.4165L8.69379 1.49678C7.73859 0.538394 6.44323 0 5.09257 0C3.74192 0 2.44656 0.538394 1.49136 1.49678Z" fill="#801212"/>
</svg>
