<!DOCTYPE svg PUBLIC "-//W3C//DTD SVG 1.1//EN" "http://www.w3.org/Graphics/SVG/1.1/DTD/svg11.dtd">
<!-- Uploaded to: SVG Repo, www.svgrepo.com, Transformed by: SVG Repo Mixer Tools -->
<svg width="800px" height="800px" viewBox="0 0 20 20" xmlns="http://www.w3.org/2000/svg" fill="#000000">
<g id="SVGRepo_bgCarrier" stroke-width="0"/>
<g id="SVGRepo_tracerCarrier" stroke-linecap="round" stroke-linejoin="round"/>
<g id="SVGRepo_iconCarrier">
<path d="M4.5 3A1.5 1.5 0 003 4.5v11A1.5 1.5 0 004.5 17h11a1.5 1.5 0 001.5-1.5V12h-2v3H5V5h3V3H4.5zM17 4a1 1 0 00-1-1h-5a1 1 0 100 2h2.586l-5.293 5.293a.999.999 0 101.414 1.414L15 6.414V9a1 1 0 102 0V4z" fill="#801212"/>
</g>
</svg>